<?xml version="1.0" encoding="UTF-8" standalone="no"?>
<!-- Created with Inkscape (http://www.inkscape.org/) -->
<svg
   xmlns:svg="http://www.w3.org/2000/svg"
   xmlns="http://www.w3.org/2000/svg"
   xmlns:xlink="http://www.w3.org/1999/xlink"
   xmlns:inkscape="http://www.inkscape.org/namespaces/inkscape"
   version="1.0"
   width="128"
   height="128"
   id="svg7366">
  <defs
     id="defs7368">
    <linearGradient
       id="linearGradient6147">
      <stop
         id="stop6149"
         style="stop-color:#ffffff;stop-opacity:1"
         offset="0" />
      <stop
         id="stop6151"
         style="stop-color:#ffffff;stop-opacity:0"
         offset="1" />
    </linearGradient>
    <linearGradient
       id="linearGradient6035">
      <stop
         id="stop6037"
         style="stop-color:#8e908b;stop-opacity:1"
         offset="0" />
      <stop
         id="stop6039"
         style="stop-color:#40423f;stop-opacity:1"
         offset="1" />
    </linearGradient>
    <linearGradient
       id="linearGradient5983">
      <stop
         id="stop5985"
         style="stop-color:#3b3c3a;stop-opacity:1"
         offset="0" />
      <stop
         id="stop5991"
         style="stop-color:#989a96;stop-opacity:1"
         offset="0.5" />
      <stop
         id="stop5987"
         style="stop-color:#31322f;stop-opacity:1"
         offset="1" />
    </linearGradient>
    <linearGradient
       id="linearGradient5975">
      <stop
         id="stop5977"
         style="stop-color:#ffffff;stop-opacity:1"
         offset="0" />
      <stop
         id="stop5979"
         style="stop-color:#ffffff;stop-opacity:0"
         offset="1" />
    </linearGradient>
    <linearGradient
       id="linearGradient11646">
      <stop
         id="stop11648"
         style="stop-color:#ffffff;stop-opacity:1"
         offset="0" />
      <stop
         id="stop11650"
         style="stop-color:#ffffff;stop-opacity:0"
         offset="1" />
    </linearGradient>
    <linearGradient
       id="linearGradient6596">
      <stop
         id="stop6598"
         style="stop-color:#a6c3e1;stop-opacity:1"
         offset="0" />
      <stop
         id="stop6600"
         style="stop-color:#a6c3e1;stop-opacity:0"
         offset="1" />
    </linearGradient>
    <linearGradient
       id="linearGradient3087">
      <stop
         id="stop3089"
         style="stop-color:#ffffff;stop-opacity:1"
         offset="0" />
      <stop
         id="stop3091"
         style="stop-color:#ffffff;stop-opacity:0"
         offset="1" />
    </linearGradient>
    <linearGradient
       id="linearGradient2206">
      <stop
         id="stop2208"
         style="stop-color:#ffffff;stop-opacity:1"
         offset="0" />
      <stop
         id="stop2210"
         style="stop-color:#ffffff;stop-opacity:0"
         offset="1" />
    </linearGradient>
    <linearGradient
       id="linearGradient5721">
      <stop
         id="stop5723"
         style="stop-color:#000000;stop-opacity:1"
         offset="0" />
      <stop
         id="stop5725"
         style="stop-color:#000000;stop-opacity:0"
         offset="1" />
    </linearGradient>
    <linearGradient
       id="linearGradient7410">
      <stop
         id="stop7412"
         style="stop-color:#555753;stop-opacity:1"
         offset="0" />
      <stop
         id="stop7414"
         style="stop-color:#555753;stop-opacity:0"
         offset="1" />
    </linearGradient>
    <linearGradient
       id="linearGradient7386">
      <stop
         id="stop7388"
         style="stop-color:#ffffff;stop-opacity:1"
         offset="0" />
      <stop
         id="stop6033"
         style="stop-color:#ffffff;stop-opacity:1"
         offset="0.34523809" />
      <stop
         id="stop6031"
         style="stop-color:#c1c1c1;stop-opacity:1"
         offset="0.79733562" />
      <stop
         id="stop7390"
         style="stop-color:#e3e3e3;stop-opacity:1"
         offset="1" />
    </linearGradient>
    <linearGradient
       id="linearGradient8895">
      <stop
         id="stop8899"
         style="stop-color:#204a87;stop-opacity:0"
         offset="0" />
      <stop
         id="stop8905"
         style="stop-color:#204a87;stop-opacity:0"
         offset="0.5" />
      <stop
         id="stop8897"
         style="stop-color:#204a87;stop-opacity:1"
         offset="1" />
    </linearGradient>
    <linearGradient
       id="linearGradient8909">
      <stop
         id="stop8911"
         style="stop-color:#edd400;stop-opacity:1"
         offset="0" />
      <stop
         id="stop8913"
         style="stop-color:#edd400;stop-opacity:0"
         offset="1" />
    </linearGradient>
    <filter
       id="filter6025"
       height="1.3305128"
       y="-0.1652564"
       width="1.1211669"
       x="-0.060583439">
      <feGaussianBlur
         id="feGaussianBlur6027"
         stdDeviation="0.70469123"
         inkscape:collect="always" />
    </filter>
    <filter
       id="filter6137"
       height="1.7304602"
       y="-0.36523011"
       width="1.776114"
       x="-0.38805699">
      <feGaussianBlur
         id="feGaussianBlur6139"
         stdDeviation="0.39207371"
         inkscape:collect="always" />
    </filter>
    <radialGradient
       cx="15.337832"
       cy="27.467861"
       r="11.631747"
       fx="15.337832"
       fy="27.467861"
       id="radialGradient2484"
       xlink:href="#linearGradient5721"
       gradientUnits="userSpaceOnUse"
       gradientTransform="matrix(1,0,0,0.366603,0,17.39807)" />
    <linearGradient
       x1="24.071547"
       y1="23.018641"
       x2="25.686659"
       y2="19.979298"
       id="linearGradient2486"
       xlink:href="#linearGradient7410"
       gradientUnits="userSpaceOnUse"
       gradientTransform="matrix(1.494265,0,0,1.494265,2.320625,-0.139643)" />
    <linearGradient
       x1="13.027615"
       y1="36.340141"
       x2="34.94733"
       y2="36.340141"
       id="linearGradient2488"
       xlink:href="#linearGradient5983"
       gradientUnits="userSpaceOnUse" />
    <linearGradient
       x1="33.57629"
       y1="42.274773"
       x2="32.471783"
       y2="36.587273"
       id="linearGradient2490"
       xlink:href="#linearGradient2206"
       gradientUnits="userSpaceOnUse" />
    <radialGradient
       cx="23.987465"
       cy="13.112228"
       r="17.011631"
       fx="23.987465"
       fy="13.112228"
       id="radialGradient2492"
       xlink:href="#linearGradient7386"
       gradientUnits="userSpaceOnUse"
       gradientTransform="matrix(0,1.2308748,-1.3565209,0,41.774476,-16.057996)" />
    <radialGradient
       cx="23.987465"
       cy="3.4559402"
       r="17.011631"
       fx="23.987465"
       fy="3.4559402"
       id="radialGradient2494"
       xlink:href="#linearGradient6035"
       gradientUnits="userSpaceOnUse"
       gradientTransform="matrix(1.9144537,0,0,1.8219649,-21.935426,-2.0188168)" />
    <linearGradient
       x1="53.135429"
       y1="20.345228"
       x2="53.135429"
       y2="1.6754831"
       id="linearGradient2496"
       xlink:href="#linearGradient3087"
       gradientUnits="userSpaceOnUse" />
    <linearGradient
       x1="23.862038"
       y1="3.7243195"
       x2="23.862038"
       y2="5.7632418"
       id="linearGradient2498"
       xlink:href="#linearGradient6596"
       gradientUnits="userSpaceOnUse" />
    <radialGradient
       cx="14.979873"
       cy="22.900909"
       r="1.75"
       fx="14.979873"
       fy="22.900909"
       id="radialGradient2500"
       xlink:href="#linearGradient11646"
       gradientUnits="userSpaceOnUse"
       gradientTransform="matrix(1.009505,0,0,1.045558,-0.372253,-1.256737)" />
    <radialGradient
       cx="32.3125"
       cy="31"
       r="2.6875"
       fx="32.3125"
       fy="31"
       id="radialGradient2502"
       xlink:href="#linearGradient8895"
       gradientUnits="userSpaceOnUse"
       gradientTransform="matrix(0.953696,0,0,0.953696,1.4961981,1.4354241)" />
    <radialGradient
       cx="33.242355"
       cy="27.869101"
       r="4.125"
       fx="33.242355"
       fy="27.869101"
       id="radialGradient2504"
       xlink:href="#linearGradient8909"
       gradientUnits="userSpaceOnUse"
       gradientTransform="matrix(0.377828,-2.2992039e-2,2.0411515e-2,0.3354218,20.433757,19.367464)" />
    <linearGradient
       x1="20.875"
       y1="18.5625"
       x2="20.875"
       y2="20.199675"
       id="linearGradient2506"
       xlink:href="#linearGradient5975"
       gradientUnits="userSpaceOnUse" />
    <linearGradient
       x1="53.135429"
       y1="20.189396"
       x2="53.135429"
       y2="13.554156"
       id="linearGradient2508"
       xlink:href="#linearGradient6147"
       gradientUnits="userSpaceOnUse" />
  </defs>
  <g
     id="g2536">
    <g
       transform="matrix(2.3001747,0,0,2.3001747,9.5606971,8.3703838)"
       id="g2467">
      <path
         d="M 26.96958,27.467861 C 26.96958,29.82293 21.761869,31.732091 15.337833,31.732091 C 8.9137959,31.732091 3.7060852,29.82293 3.7060852,27.467861 C 3.7060852,25.112792 8.9137959,23.203631 15.337833,23.203631 C 21.761869,23.203631 26.96958,25.112792 26.96958,27.467861 z"
         transform="matrix(1.477341,0,0,1.2837468,1.328269,4.128357)"
         id="path4750"
         style="opacity:0.72352941;fill:url(#radialGradient2484);fill-opacity:1;fill-rule:evenodd;stroke:none;stroke-width:0.99999994;stroke-linecap:round;stroke-linejoin:round;marker:none;marker-start:none;marker-mid:none;marker-end:none;stroke-miterlimit:4;stroke-dasharray:none;stroke-dashoffset:0;stroke-opacity:0.49099097;visibility:visible;display:inline;overflow:visible" />
      <path
         d="M 26.228869,38.711256 C 26.228869,38.711256 32.205932,37.21699 38.182992,37.590557 C 44.160054,37.964123 42.46939,35.842618 38.860524,34.512702 C 35.251657,33.182785 40.730665,31.29562 40.730665,29.801354"
         id="path7408"
         style="fill:none;fill-rule:evenodd;stroke:url(#linearGradient2486);stroke-width:0.99999982px;stroke-linecap:butt;stroke-linejoin:miter;stroke-opacity:1" />
      <path
         d="M 34.447331,38.819745 C 34.447331,42.212194 29.761316,42.48588 23.987472,42.48588 C 18.213633,42.48588 13.527615,42.212194 13.527615,38.819745 C 13.527615,35.427298 18.213633,30.1944 23.987472,30.1944 C 29.761316,30.1944 34.447331,35.427298 34.447331,38.819745 z"
         id="path7399"
         style="fill:url(#linearGradient2488);fill-opacity:1;fill-rule:evenodd;stroke:#2e3436;stroke-width:0.9999997;stroke-linecap:round;stroke-linejoin:miter;marker:none;marker-start:none;marker-mid:none;marker-end:none;stroke-miterlimit:4;stroke-dashoffset:0;stroke-opacity:1;visibility:visible;display:inline;overflow:visible" />
      <path
         d="M 26.96958,27.467861 C 26.96958,29.82293 21.761869,31.732091 15.337833,31.732091 C 8.9137959,31.732091 3.7060852,29.82293 3.7060852,27.467861 C 3.7060852,25.112792 8.9137959,23.203631 15.337833,23.203631 C 21.761869,23.203631 26.96958,25.112792 26.96958,27.467861 z"
         transform="matrix(0.7782433,0,0,1.333079,11.697359,-4.6942085)"
         id="path5993"
         style="opacity:0.47647059;fill:#000000;fill-opacity:1;fill-rule:evenodd;stroke:none;stroke-width:0.99999994;stroke-linecap:round;stroke-linejoin:round;marker:none;marker-start:none;marker-mid:none;marker-end:none;stroke-miterlimit:4;stroke-dasharray:none;stroke-dashoffset:0;stroke-opacity:0.49099097;visibility:visible;display:inline;overflow:visible;filter:url(#filter6025)" />
      <path
         d="M 33.471784,38.551985 C 33.471784,41.239991 29.225196,41.456847 23.992786,41.456847 C 18.760382,41.456847 14.51379,41.239991 14.51379,38.551985 C 14.51379,35.86398 18.760382,31.717695 23.992786,31.717695 C 29.225196,31.717695 33.471784,35.86398 33.471784,38.551985 z"
         id="path7402"
         style="fill:none;fill-opacity:1;fill-rule:evenodd;stroke:url(#linearGradient2490);stroke-width:0.99999994;stroke-linecap:round;stroke-linejoin:miter;marker:none;marker-start:none;marker-mid:none;marker-end:none;stroke-miterlimit:4;stroke-dashoffset:0;stroke-opacity:0.54054051;visibility:visible;display:inline;overflow:visible" />
      <path
         d="M 40.499096,20.467574 C 40.499096,29.128334 33.101885,36.157357 23.987463,36.157357 C 14.873044,36.157357 7.475834,29.128334 7.475834,20.467574 C 7.475834,11.806809 14.873044,4.777785 23.987463,4.777785 C 33.101885,4.777785 40.499096,11.806809 40.499096,20.467574 z"
         id="path7384"
         style="fill:url(#radialGradient2492);fill-opacity:1;fill-rule:evenodd;stroke:url(#radialGradient2494);stroke-width:0.99999982;stroke-linecap:round;stroke-linejoin:miter;marker:none;marker-start:none;marker-mid:none;marker-end:none;stroke-miterlimit:4;stroke-dashoffset:0;stroke-opacity:1;visibility:visible;display:inline;overflow:visible" />
      <path
         d="M 61.797844,11.013739 C 61.798571,15.798372 57.920063,19.67747 53.13543,19.67747 C 48.350796,19.67747 44.472288,15.798372 44.473015,11.013739 C 44.472288,6.2291055 48.350796,2.3500082 53.13543,2.3500082 C 57.920063,2.3500082 61.798571,6.2291055 61.797844,11.013739 L 61.797844,11.013739 z"
         transform="matrix(0.866297,0,0,0.866006,-22.02994,11.46586)"
         id="path7394"
         style="opacity:1;fill:#1a1d1f;fill-opacity:1;fill-rule:evenodd;stroke:#080a0a;stroke-width:1.15453279;stroke-linecap:round;stroke-linejoin:miter;marker:none;marker-start:none;marker-mid:none;marker-end:none;stroke-miterlimit:4;stroke-dasharray:none;stroke-dashoffset:0;stroke-opacity:1;visibility:visible;display:inline;overflow:visible" />
      <path
         d="M 10.040361,8.2567558 C 10.040361,8.8496323 9.5880115,9.3302536 9.0300102,9.3302536 C 8.4720089,9.3302536 8.0196594,8.8496323 8.0196594,8.2567558 C 8.0196594,7.6638793 8.4720089,7.183258 9.0300102,7.183258 C 9.5880115,7.183258 10.040361,7.6638793 10.040361,8.2567558 z"
         transform="matrix(2.0356945,0,0,1.915947,-2.6133304,-2.8232634)"
         id="path7418"
         style="opacity:1;fill:#4e9a06;fill-opacity:1;fill-rule:evenodd;stroke:none;stroke-width:1;stroke-linecap:round;stroke-linejoin:miter;marker:none;marker-start:none;marker-mid:none;marker-end:none;stroke-miterlimit:4;stroke-dasharray:none;stroke-dashoffset:0;stroke-opacity:0.54054051;visibility:visible;display:inline;overflow:visible" />
      <path
         d="M 39.481947,20.467564 C 39.481947,28.58872 32.543965,35.179802 23.995379,35.179802 C 15.446795,35.179802 8.5088115,28.58872 8.5088115,20.467564 C 8.5088115,12.346406 15.446795,5.7553233 23.995379,5.7553233 C 32.543965,5.7553233 39.481947,12.346406 39.481947,20.467564 z"
         id="path7404"
         style="opacity:1;fill:none;fill-opacity:1;fill-rule:evenodd;stroke:#ffffff;stroke-width:0.99999946;stroke-linecap:round;stroke-linejoin:miter;marker:none;marker-start:none;marker-mid:none;marker-end:none;stroke-miterlimit:4;stroke-dasharray:none;stroke-dashoffset:0;stroke-opacity:0.54054051;visibility:visible;display:inline;overflow:visible" />
      <path
         d="M 61.797844,11.013739 C 61.798571,15.798372 57.920063,19.67747 53.13543,19.67747 C 48.350796,19.67747 44.472288,15.798372 44.473015,11.013739 C 44.472288,6.2291055 48.350796,2.3500082 53.13543,2.3500082 C 57.920063,2.3500082 61.798571,6.2291055 61.797844,11.013739 L 61.797844,11.013739 z"
         transform="matrix(0.746845,0,0,0.7473,-15.67411,12.78367)"
         id="path7423"
         style="opacity:1;fill:none;fill-opacity:1;fill-rule:evenodd;stroke:url(#linearGradient2496);stroke-width:1.33855808;stroke-linecap:round;stroke-linejoin:miter;marker:none;marker-start:none;marker-mid:none;marker-end:none;stroke-miterlimit:4;stroke-dasharray:none;stroke-dashoffset:0;stroke-opacity:0.37387384;visibility:visible;display:inline;overflow:visible" />
      <path
         d="M 10.040361,8.2567558 C 10.040361,8.8496323 9.5880115,9.3302536 9.0300102,9.3302536 C 8.4720089,9.3302536 8.0196594,8.8496323 8.0196594,8.2567558 C 8.0196594,7.6638793 8.4720089,7.183258 9.0300102,7.183258 C 9.5880115,7.183258 10.040361,7.6638793 10.040361,8.2567558 z"
         transform="matrix(1.337693,-1.306334,-0.593221,-0.652343,25.02462,46.6156)"
         id="path4755"
         style="opacity:1;fill:#555753;fill-opacity:1;fill-rule:evenodd;stroke:none;stroke-width:1;stroke-linecap:round;stroke-linejoin:miter;marker:none;marker-start:none;marker-mid:none;marker-end:none;stroke-miterlimit:4;stroke-dasharray:none;stroke-dashoffset:0;stroke-opacity:0.54054051;visibility:visible;display:inline;overflow:visible" />
      <path
         d="M 28.470269,5.2767411 C 28.470269,6.3769991 26.461975,6.2733516 23.987472,6.2733516 C 21.512966,6.2733516 19.504673,6.3769991 19.504673,5.2767411 C 19.504673,4.1764829 21.512966,3.2835198 23.987472,3.2835198 C 26.461975,3.2835198 28.470269,4.1764829 28.470269,5.2767411 z"
         id="path7420"
         style="fill:#729fcf;fill-opacity:1;fill-rule:evenodd;stroke:#3465a4;stroke-width:0.99999994;stroke-linecap:round;stroke-linejoin:miter;marker:none;marker-start:none;marker-mid:none;marker-end:none;stroke-miterlimit:4;stroke-dashoffset:0;stroke-opacity:1;visibility:visible;display:inline;overflow:visible" />
      <path
         d="M 15.59375,11.5 C 15.219962,11.54756 14.859905,11.760098 14.625,12.03125 C 14.411778,12.28958 14.28125,12.639135 14.28125,13 C 14.28125,13.12888 14.281774,13.255669 14.3125,13.375 C 15.397406,13.260556 16.17065,12.880007 16.9375,12.09375 C 16.943077,12.088032 16.931925,12.068261 16.9375,12.0625 C 16.663847,11.714338 16.258108,11.5 15.78125,11.5 C 15.71681,11.5 15.656048,11.492073 15.59375,11.5 z"
         id="path3972"
         style="opacity:1;fill:#64c607;fill-opacity:1;fill-rule:evenodd;stroke:none;stroke-width:1;stroke-linecap:round;stroke-linejoin:miter;marker:none;marker-start:none;marker-mid:none;marker-end:none;stroke-miterlimit:4;stroke-dasharray:none;stroke-dashoffset:0;stroke-opacity:0.54054051;visibility:visible;display:inline;overflow:visible" />
      <path
         d="M 20.572388,5.1546796 C 22.148658,4.1221425 25.347243,3.8688101 27.464039,5.1546796"
         id="path4848"
         style="fill:none;fill-opacity:1;fill-rule:evenodd;stroke:url(#linearGradient2498);stroke-width:1px;stroke-linecap:round;stroke-linejoin:miter;stroke-opacity:1" />
      <path
         d="M 16.5,22.6875 C 16.5,23.688516 15.716498,24.5 14.75,24.5 C 13.783502,24.5 13,23.688516 13,22.6875 C 13,21.686484 13.783502,20.875 14.75,20.875 C 15.716498,20.875 16.5,21.686484 16.5,22.6875 z"
         transform="matrix(2.229764,0,0,2.229764,-8.371313,-27.5036)"
         id="path2599"
         style="opacity:0.38235294;fill:url(#radialGradient2500);fill-opacity:1;fill-rule:nonzero;stroke:none;stroke-width:1;stroke-linecap:butt;stroke-linejoin:miter;marker:none;marker-start:none;marker-mid:none;marker-end:none;stroke-miterlimit:4;stroke-dashoffset:0;stroke-opacity:1;visibility:visible;display:inline;overflow:visible;font-family:Bitstream Vera Sans" />
      <path
         d="M 35,31 C 35,32.484265 33.796765,33.6875 32.3125,33.6875 C 30.828235,33.6875 29.625,32.484265 29.625,31 C 29.625,29.515735 30.828235,28.3125 32.3125,28.3125 C 33.796765,28.3125 35,29.515735 35,31 L 35,31 z"
         transform="matrix(2.2381039,0,0,2.2381039,-48.303828,-48.396125)"
         id="path8893"
         style="opacity:0.48235294;fill:url(#radialGradient2502);fill-opacity:1;fill-rule:evenodd;stroke:none;stroke-width:0.30000001;stroke-linecap:butt;stroke-linejoin:miter;marker:none;marker-start:none;marker-mid:none;marker-end:none;stroke-miterlimit:10;stroke-dasharray:none;stroke-dashoffset:0;stroke-opacity:1;visibility:visible;display:inline;overflow:visible;enable-background:accumulate" />
      <path
         d="M 35.6875,26 C 35.6875,27.173605 34.736105,28.125 33.5625,28.125 C 32.388895,28.125 31.4375,27.173605 31.4375,26 C 31.4375,24.826395 32.388895,23.875 33.5625,23.875 C 34.736105,23.875 35.6875,24.826395 35.6875,26 L 35.6875,26 z"
         transform="matrix(2.1051133,0,0,2.1051133,-46.626229,-33.715382)"
         id="path8907"
         style="opacity:1;fill:none;fill-opacity:1;fill-rule:evenodd;stroke:url(#radialGradient2504);stroke-width:0.47503382;stroke-linecap:butt;stroke-linejoin:miter;marker:none;marker-start:none;marker-mid:none;marker-end:none;stroke-miterlimit:10;stroke-dasharray:none;stroke-dashoffset:0;stroke-opacity:1;visibility:visible;display:inline;overflow:visible;enable-background:accumulate" />
      <path
         d="M 16.5,22.6875 C 16.5,23.688516 15.716498,24.5 14.75,24.5 C 13.783502,24.5 13,23.688516 13,22.6875 C 13,21.686484 13.783502,20.875 14.75,20.875 C 15.716498,20.875 16.5,21.686484 16.5,22.6875 z"
         transform="matrix(1.142857,0,0,1.103448,7.142867,-4.034485)"
         id="path15180"
         style="opacity:1;fill:#000000;fill-opacity:1;fill-rule:nonzero;stroke:none;stroke-width:1;stroke-linecap:butt;stroke-linejoin:miter;marker:none;marker-start:none;marker-mid:none;marker-end:none;stroke-miterlimit:4;stroke-dashoffset:0;stroke-opacity:1;visibility:visible;display:inline;overflow:visible;font-family:Bitstream Vera Sans" />
      <path
         d="M 22.125,18.5625 C 22.125,19.252856 21.565356,19.8125 20.875,19.8125 C 20.184644,19.8125 19.625,19.252856 19.625,18.5625 C 19.625,17.872144 20.184644,17.3125 20.875,17.3125 C 21.565356,17.3125 22.125,17.872144 22.125,18.5625 z"
         transform="matrix(2.4,0,0,1.6,-26.1,-11.7)"
         id="path5604"
         style="opacity:1;fill:url(#linearGradient2506);fill-opacity:1;fill-rule:evenodd;stroke:none;stroke-width:1;stroke-linecap:round;stroke-linejoin:miter;marker:none;marker-start:none;marker-mid:none;marker-end:none;stroke-miterlimit:4;stroke-dasharray:none;stroke-dashoffset:0;stroke-opacity:1;visibility:visible;display:inline;overflow:visible;enable-background:accumulate" />
      <path
         d="M 10.040361,8.2567558 C 10.040361,8.8496323 9.5880115,9.3302536 9.0300102,9.3302536 C 8.4720089,9.3302536 8.0196594,8.8496323 8.0196594,8.2567558 C 8.0196594,7.6638793 8.4720089,7.183258 9.0300102,7.183258 C 9.5880115,7.183258 10.040361,7.6638793 10.040361,8.2567558 z"
         transform="matrix(2.0356945,0,0,1.915947,-2.6133304,-2.8232634)"
         id="path6043"
         style="opacity:1;fill:#edd400;fill-opacity:1;fill-rule:evenodd;stroke:none;stroke-width:1;stroke-linecap:round;stroke-linejoin:miter;marker:none;marker-start:none;marker-mid:none;marker-end:none;stroke-miterlimit:4;stroke-dasharray:none;stroke-dashoffset:0;stroke-opacity:0.54054051;visibility:visible;display:inline;overflow:visible;filter:url(#filter6137)" />
      <path
         d="M 16.53125,13.09375 C 16.53125,13.542481 16.167481,13.90625 15.71875,13.90625 C 15.270019,13.90625 14.90625,13.542481 14.90625,13.09375 C 14.90625,12.645019 15.270019,12.28125 15.71875,12.28125 C 16.167481,12.28125 16.53125,12.645019 16.53125,13.09375 L 16.53125,13.09375 z"
         transform="translate(3.125e-2,-6.25e-2)"
         id="path6141"
         style="opacity:1;fill:#ffffff;fill-opacity:1;fill-rule:evenodd;stroke:none;stroke-width:1;stroke-linecap:round;stroke-linejoin:miter;marker:none;marker-start:none;marker-mid:none;marker-end:none;stroke-miterlimit:4;stroke-dasharray:none;stroke-dashoffset:0;stroke-opacity:1;visibility:visible;display:inline;overflow:visible;enable-background:accumulate" />
      <path
         d="M 61.797844,11.013739 C 61.798571,15.798372 57.920063,19.67747 53.13543,19.67747 C 48.350796,19.67747 44.472288,15.798372 44.473015,11.013739 C 44.472288,6.2291055 48.350796,2.3500082 53.13543,2.3500082 C 57.920063,2.3500082 61.798571,6.2291055 61.797844,11.013739 L 61.797844,11.013739 z"
         transform="matrix(0.974527,0,0,0.9741996,-27.780787,10.274244)"
         id="path6143"
         style="opacity:1;fill:none;fill-opacity:1;fill-rule:evenodd;stroke:url(#linearGradient2508);stroke-width:1.02631152;stroke-linecap:round;stroke-linejoin:miter;marker:none;marker-start:none;marker-mid:none;marker-end:none;stroke-miterlimit:4;stroke-dasharray:none;stroke-dashoffset:0;stroke-opacity:1;visibility:visible;display:inline;overflow:visible" />
    </g>
  </g>
</svg>
