<?xml version="1.0" encoding="iso-8859-1"?>
<!-- Generator: Adobe Illustrator 16.0.4, SVG Export Plug-In . SVG Version: 6.00 Build 0)  -->
<!DOCTYPE svg PUBLIC "-//W3C//DTD SVG 1.1//EN" "http://www.w3.org/Graphics/SVG/1.1/DTD/svg11.dtd">
<svg version="1.1" id="Capa_1" xmlns="http://www.w3.org/2000/svg" xmlns:xlink="http://www.w3.org/1999/xlink" x="0px" y="0px"
	 width="30.265px" height="35.464px" viewBox="0 0 30.265 35.464" style="enable-background:new 0 0 30.265 35.464;"
	 xml:space="preserve">
<path d="M26.56,17.915l-1.293-1.294c4.226-4.227,4.225-11.102-0.002-15.328L26.56,0C31.5,4.938,31.5,12.977,26.56,17.915z
	 M23.029,14.384l1.293,1.296c3.706-3.707,3.706-9.738,0-13.443l-1.293,1.293C26.021,6.521,26.021,11.393,23.029,14.384z
	 M22.015,13.37c2.434-2.433,2.434-6.394-0.001-8.826l-1.293,1.293c1.722,1.722,1.722,4.521,0,6.239L22.015,13.37z M5,1.293L3.705,0
	c-4.939,4.938-4.939,12.977,0,17.915l1.293-1.294C0.772,12.396,0.773,5.52,5,1.293z M5.941,15.68l1.294-1.296
	c-2.992-2.991-2.992-7.86,0-10.854L5.941,2.236C2.235,5.941,2.235,11.973,5.941,15.68z M8.249,13.37l1.294-1.294
	c-1.72-1.721-1.72-4.52,0.001-6.239L8.25,4.544C5.816,6.979,5.816,10.938,8.249,13.37z M22.571,31.658h-4.449l-2.668-19.279
	c1.243-0.16,2.207-1.21,2.207-2.497c0-1.396-1.133-2.528-2.529-2.528c-1.397,0-2.529,1.133-2.529,2.528
	c0,1.287,0.964,2.337,2.206,2.497l-2.667,19.279H7.693c-1.051,0-1.902,0.853-1.902,1.902c0,1.051,0.852,1.903,1.902,1.903h14.879
	c1.051,0,1.902-0.853,1.902-1.903C24.474,32.511,23.623,31.658,22.571,31.658z"/>
<g>
</g>
<g>
</g>
<g>
</g>
<g>
</g>
<g>
</g>
<g>
</g>
<g>
</g>
<g>
</g>
<g>
</g>
<g>
</g>
<g>
</g>
<g>
</g>
<g>
</g>
<g>
</g>
<g>
</g>
</svg>
