<?xml version="1.0" encoding="utf-8"?>
<!-- Generator: Adobe Illustrator 16.0.4, SVG Export Plug-In . SVG Version: 6.00 Build 0)  -->
<!DOCTYPE svg PUBLIC "-//W3C//DTD SVG 1.1//EN" "http://www.w3.org/Graphics/SVG/1.1/DTD/svg11.dtd">
<svg version="1.1" id="Capa_1" xmlns="http://www.w3.org/2000/svg" xmlns:xlink="http://www.w3.org/1999/xlink" x="0px" y="0px"
	 width="52px" height="52px" viewBox="0 0 52 52" enable-background="new 0 0 52 52" xml:space="preserve">
<g>
	<circle cx="26.675" cy="6.697" r="5.697"/>
	<path d="M38.467,26.399c-1.957-2.692-5.749-8.234-7.64-11.011c-0.622-0.913-2.021-1.654-3.125-1.654h-2.996
		c-1.105,0-2.511,0.735-3.141,1.643l-6.99,10.064c-0.235,0.338-0.462,0.67-0.656,0.961c-0.14-0.016-0.275-0.042-0.419-0.042
		c-2.117,0-3.833,1.717-3.833,3.834s1.717,3.834,3.833,3.834s3.833-1.717,3.833-3.834c0-0.636-0.169-1.227-0.444-1.755
		c0.126-0.216,0.268-0.441,0.421-0.665c1.363-1.981,3.047-4.331,3.666-4.498c0.267-0.072,0.464-0.053,0.608,0.006
		c0.317,0.129,0.136,1.317-0.038,2.407c-0.458,2.866-0.992,7.823-1.061,8.452c-0.058,0.529-1.087,4.535-1.848,7.459
		c-0.086,0.332-0.267,0.651-0.487,0.961c-1.95,0.179-3.484,1.801-3.484,3.799c0,2.117,1.717,3.834,3.833,3.834
		s3.833-1.717,3.833-3.834c0-0.821-0.264-1.579-0.704-2.203c0.037-0.134,0.075-0.271,0.115-0.41
		c0.758-2.631,1.836-6.453,2.477-8.736c0.299-1.062,1.215-1.879,2.048-1.82c0.833,0.059,1.735,0.971,2.015,2.039l2.024,7.725
		c0.056,0.211,0.1,0.424,0.139,0.634c-0.734,0.699-1.197,1.68-1.197,2.772c0,2.117,1.717,3.834,3.833,3.834s3.833-1.717,3.833-3.834
		c0-1.678-1.086-3.09-2.587-3.609c-0.121-0.269-0.222-0.54-0.287-0.805c-0.772-3.176-1.67-7.713-1.67-7.713
		c-0.228-2.146-1.552-8.176-1.228-10.476c0.045-0.308,0.252-0.449,0.483-0.507c0.401-0.101,1.212,0.773,1.789,1.714l1.328,2.167
		c0.138,0.224,0.255,0.454,0.355,0.682c-0.524,0.655-0.851,1.477-0.851,2.381c0,2.117,1.717,3.834,3.833,3.834
		s3.833-1.717,3.833-3.834C41.916,28.209,40.4,26.595,38.467,26.399z"/>
</g>
</svg>
