<svg width="64" xmlns="http://www.w3.org/2000/svg" height="64" viewBox="0 0 64 64" xmlns:xlink="http://www.w3.org/1999/xlink" enable-background="new 0 0 64 64">
<g fill="#1d1d1b">
<path d="m36.897,11.214c.091-.371 .141-.761 .141-1.166 0-.419-.053-.823-.149-1.205-.164-.652-.295-.729-.201-.213 .056,.307 .088,.622 .088,.945 0,.562-.027,1.071-.078,1.532-.075,.674 .044,.738 .199,.107z"/>
<path d="m24.877,8.843c-.096,.383-.149,.786-.149,1.205 0,.405 .05,.795 .141,1.166 .155,.632 .274,.567 .199-.107-.051-.46-.078-.969-.078-1.531 0-.323 .032-.638 .088-.945 .094-.517-.036-.44-.201,.212z"/>
<path d="m30.884,4.264c-1.539,0-2.912,.674-3.877,1.731-.863,.945-1.402,2.195-1.402,3.579 0,.987 .082,1.79 .235,2.444 .154,.661 .345,.953 .297,.696-.028-.153-.045-.31-.047-.471-.033-.817-.049-1.369-.066-1.999l-.034-1.139c0-1.858 1.91-3.246 3.617-3.246h.325 1.904 .325c1.707,0 3.617,1.388 3.617,3.266l-.033,1.117c-.018,.631-.034,1.184-.066,1.982-.001,.169-.019,.333-.049,.493-.05,.27 .137-.011 .294-.671 .156-.658 .241-1.469 .241-2.47 0-1.384-.539-2.634-1.402-3.579-.967-1.059-2.34-1.733-3.879-1.733z"/>
<path d="m27.964,14.438c.407,.252 .883,.403 1.396,.403 .813,0 1.354,0 1.987,0 .316,0 .655,0 1.061,0 .513,0 .989-.151 1.396-.403 .747-.462 1.253-1.278 1.26-2.221 .05-1.247 .06-1.875 .099-3.113 0-1.454-1.549-2.632-3.003-2.632-.488,0-.857,0-1.223,0-.035,0-.072,0-.107,0-.366,0-.736,0-1.223,0-1.454,0-3.003,1.178-3.003,2.632 .039,1.238 .049,1.866 .099,3.113 .008,.944 .514,1.759 1.261,2.221zm4.506-4.944c.156-.102 .332-.177 .533-.177 .548,0 .992,.444 .992,.992 0,.548-.444,.992-.992,.992-.229,0-.431-.091-.599-.221-.233-.181-.393-.452-.393-.77 0-.348 .189-.639 .459-.816zm-3.706-.177c.201,0 .377,.074 .533,.177 .27,.177 .459,.468 .459,.815 0,.318-.16,.589-.393,.771-.168,.131-.369,.221-.599,.221-.548,0-.992-.444-.992-.992 .001-.548 .445-.992 .992-.992z"/>
<path d="m23.168,15.274c-1.652,0-3.117,1.236-3.448,3.043-.074,.405-.084,.807-.039,1.197 .077,.66 .706,.753 1.33,.486 .389-.167 .806-.257 1.237-.257 .235,0 .471,.027 .702,.081 .233,.054 .453,.134 .661,.236 .348,.171 .797-.135 1.052-.764l.776-1.92c0,0 .078-.192 .173-.428 .096-.237-.146-.825-.665-1.156-.309-.197-.65-.346-1.021-.431-.255-.059-.509-.087-.758-.087z"/>
<path d="m23.078,27.023v-3.569c0-.158 .03-.314 .09-.46 0,0 .121-.3 .271-.67s.09-.888-.2-1.068c-.175-.108-.365-.188-.568-.236-.141-.033-.283-.049-.422-.049-.593,0-1.155,.294-1.587,.778-.135,.152-.259,.32-.364,.508-.102,.182-.188,.379-.256,.59-.043,.133-.082,.269-.108,.412l-.56,2.997c-.032,.17-.049,.339-.054,.506-.008,.281 .287,.381 .638,.301 .211-.048 .426-.075 .646-.075 .463,0 .914,.103 1.338,.307 .229,.11 .435,.251 .623,.414 .312,.27 .513-.007 .513-.686z"/>
<path d="m22.6,32.028c.17-.493 .212-1.003 .159-1.487-.024-.215-.062-.425-.124-.625-.063-.199-.146-.386-.246-.561-.235-.415-.565-.753-.979-.952-.264-.126-.537-.186-.808-.186-.305,0-.598,.1-.879,.243-.178,.09-.348,.197-.506,.339-.156,.14-.307,.291-.434,.477-.15,.22-.277,.47-.372,.747l-.981,2.847c-.18,.521-.224,1.063-.153,1.57 .094,.672 .56,1.076 .769,1.006 .125-.042 .253-.076 .388-.099 .17-.029 .345-.044 .518-.044 .367,0 .715,.066 1.045,.177 .558,.188 1.163,.259 1.348-.036 .108-.171 .201-.359 .272-.568l.983-2.848z"/>
<path d="m20.996,37.486c-.18-.149-.366-.286-.559-.414-.265-.176-.538-.331-.824-.426-.216-.071-.435-.116-.66-.116-.061,0-.122,.01-.183,.016-.042,.004-.084,.003-.126,.011-.236,.041-.456,.133-.665,.256-.181,.107-.351,.242-.513,.395-.456,.428-.845,1.001-1.184,1.566-.187,.311-.113,.733 .166,.943 .067,.05 .14,.083 .214,.101 .041,.01 .083,.014 .124,.014 .195,0 .387-.105 .505-.3 .625-1.039 1.114-1.557 1.54-1.631 .038-.006 .077-.01 .118-.01 .384,0 .892,.289 1.581,.9 .112,.098 .245,.146 .377,.146 .179,0 .356-.088 .476-.257 .208-.294 .164-.722-.099-.955-.092-.081-.192-.159-.288-.239z"/>
<path d="m36.493,17.015l.859,2.265c.24,.634 .674,.953 1.009,.781 .199-.103 .411-.184 .636-.237 .23-.054 .467-.081 .702-.081 .431,0 .848,.091 1.237,.257 .624,.267 1.253,.174 1.33-.486 .045-.39 .035-.792-.039-1.197-.331-1.807-1.796-3.043-3.448-3.043-.249,0-.503,.028-.758,.087-.343,.079-.664,.21-.958,.382-.494,.289-.756,.782-.69,.957l.12,.315z"/>
<path d="m42.013,23.259c-.027-.143-.066-.279-.108-.412-.068-.211-.154-.408-.256-.591-.105-.188-.229-.356-.364-.508-.431-.484-.993-.778-1.587-.778-.14,0-.281,.016-.422,.049-.201,.047-.389,.126-.562,.233-.287,.177-.346,.71-.196,1.104l.271,.714c.053,.139 .08,.287 .08,.435v3.517c0,.678 .202,.956 .515,.685 .188-.163 .394-.304 .623-.414 .425-.203 .875-.307 1.338-.307 .219,0 .435,.026 .646,.075 .35,.08 .646-.02 .638-.301-.005-.167-.022-.336-.054-.506l-.562-2.995z"/>
<path d="m43.534,30.021c-.096-.277-.223-.527-.372-.747-.127-.186-.278-.337-.434-.477-.157-.141-.327-.248-.505-.339-.281-.142-.574-.243-.879-.243-.271,0-.544,.06-.808,.186-.414,.198-.743,.537-.979,.952-.099,.175-.183,.362-.246,.562-.063,.199-.101,.409-.124,.624-.053,.484-.011,.995 .159,1.487l.982,2.848c.072,.209 .165,.397 .272,.568 .186,.295 .79,.223 1.348,.036 .33-.111 .679-.177 1.045-.177 .174,0 .348,.015 .52,.045 .134,.023 .263,.057 .387,.099 .209,.07 .675-.334 .769-1.006 .071-.507 .027-1.049-.153-1.57l-.982-2.848z"/>
<path d="m43.968,36.814c-.209-.124-.429-.215-.665-.256-.042-.007-.084-.007-.126-.011-.061-.006-.123-.016-.183-.016-.225,0-.445,.044-.66,.116-.286,.094-.559,.249-.824,.425-.193,.128-.379,.265-.559,.414-.096,.08-.196,.158-.288,.239-.263,.233-.307,.661-.099,.955 .12,.169 .297,.257 .476,.257 .132,0 .266-.048 .377-.146 .69-.612 1.198-.9 1.581-.9 .041,0 .08,.003 .118,.01 .426,.074 .915,.592 1.54,1.631 .117,.195 .31,.3 .505,.3 .041,0 .083-.005 .124-.014 .075-.018 .148-.051 .215-.101 .279-.209 .353-.632 .166-.943-.339-.564-.729-1.137-1.184-1.566-.163-.152-.333-.287-.514-.394z"/>
<path d="m35.344,17.451c0,0-.111-.294-.249-.656-.137-.362-.792-.75-1.466-.822-.903-.097-1.764-.133-2.543-.133-1.043,0-1.942,.065-2.605,.134-.675,.07-1.371,.546-1.56,1.015l-.343,.849-1.478,3.657-.71,1.756c0,0-.019,.046-.041,.102-.023,.057-.041,.375-.041,.711v.609 4.402c0,.678 .55,1.229 1.229,1.229h10.876c.678,0 1.228-.55 1.228-1.229v-4.402c0,0 0-.261 0-.583 0-.322-.019-.634-.044-.698l-.044-.115-.461-1.215-.228-.602-1.439-3.795-.081-.214z"/>
<path d="m24.16,32.397c-.16,0-.29,.55-.29,1.228v10.109c0,.679 .55,1.229 1.229,1.229h2.598c.678,0 1.323-.542 1.439-1.21l.672-3.862c.116-.668 .211-1.76 .211-2.439v-3.826c0-.678-.13-1.228-.29-1.228s-.246,.148-.216,.336c.018,.112 .028,.227 .028,.345 0,1.431-1.164,2.596-2.596,2.596s-2.596-1.164-2.596-2.596c0-.118 .01-.232 .028-.345 .029-.189-.057-.337-.217-.337z"/>
<path d="m24.469,57.258c-.331,0-.599,.474-.599,1.059s.55,1.059 1.229,1.059h3.349c.679,0 1.229-.474 1.229-1.059s-.192-1.059-.428-1.059c-.237,0-.637,.534-1.184,.895-.322,.212-.706,.335-1.12,.335s-.798-.123-1.12-.335c-.549-.361-1.025-.895-1.356-.895z"/>
<path d="m29.676,47.148c0-.678-.55-1.228-1.229-1.228h-3.349c-.678,0-1.229,.55-1.229,1.228v8.062c0,.678 .229,1.229 .512,1.229 .283,0 .486-.595 .87-1.155 .37-.539 .99-.894 1.692-.894s1.322,.355 1.692,.894c.383,.56 .51,1.155 .699,1.155 .189,0 .342-.55 .342-1.229v-8.062z"/>
<path d="m26.943,57.395c.171,0 .324-.057 .463-.137 .289-.165 .494-.464 .494-.82 0-.527-.429-.956-.956-.956s-.956,.429-.956,.956c0,.356 .204,.655 .494,.82 .138,.079 .29,.137 .461,.137z"/>
<path d="m28.446,33.078c0-.246-.065-.476-.171-.681-.249-.486-.75-.822-1.332-.822s-1.083,.336-1.332,.822c-.105,.205-.171,.435-.171,.681 0,.829 .674,1.503 1.503,1.503s1.503-.675 1.503-1.503z"/>
<path d="m32.22,32.397c-.16,0-.29,.55-.29,1.228v3.826c0,.678 .094,1.77 .211,2.439l.672,3.862c.116,.668 .76,1.21 1.439,1.21h2.598c.678,0 1.228-.55 1.228-1.229v-10.108c0-.678-.13-1.228-.29-1.228-.16,0-.246,.148-.216,.336 .018,.112 .028,.227 .028,.345 0,1.431-1.164,2.596-2.596,2.596-1.431,0-2.596-1.164-2.596-2.596 0-.118 .01-.232 .028-.345 .03-.188-.056-.336-.216-.336z"/>
<path d="m32.7,57.258c-.237,0-.428,.474-.428,1.059s.55,1.059 1.228,1.059h3.349c.678,0 1.228-.474 1.228-1.059s-.268-1.059-.599-1.059c-.331,0-.807,.534-1.355,.895-.322,.212-.706,.335-1.12,.335-.413,0-.798-.123-1.12-.335-.547-.361-.947-.895-1.183-.895z"/>
<path d="m38.077,47.148c0-.678-.55-1.228-1.228-1.228h-3.349c-.678,0-1.228,.55-1.228,1.228v8.062c0,.678 .153,1.229 .341,1.229 .189,0 .316-.595 .699-1.155 .37-.539 .99-.894 1.692-.894s1.322,.355 1.692,.894c.383,.56 .587,1.155 .87,1.155 .283,0 .512-.55 .512-1.229v-8.062z"/>
<path d="m35.003,57.395c.171,0 .323-.057 .463-.137 .289-.165 .494-.464 .494-.82 0-.527-.429-.956-.956-.956-.527,0-.956,.429-.956,.956 0,.356 .204,.655 .494,.82 .138,.079 .29,.137 .461,.137z"/>
<path d="m36.506,33.078c0-.246-.065-.476-.171-.681-.249-.486-.75-.822-1.332-.822s-1.083,.336-1.332,.822c-.105,.205-.171,.435-.171,.681 0,.829 .674,1.503 1.503,1.503 .829,0 1.503-.675 1.503-1.503z"/>
</g>
</svg>
