<?xml version="1.0" encoding="utf-8"?>
<!-- Generator: Adobe Illustrator 15.0.0, SVG Export Plug-In . SVG Version: 6.00 Build 0)  -->
<!DOCTYPE svg PUBLIC "-//W3C//DTD SVG 1.1//EN" "http://www.w3.org/Graphics/SVG/1.1/DTD/svg11.dtd">
<svg version="1.1" id="Layer_1" xmlns="http://www.w3.org/2000/svg" xmlns:xlink="http://www.w3.org/1999/xlink" x="0px" y="0px"
	 width="26px" height="26px" viewBox="0 0 26 26" enable-background="new 0 0 26 26" xml:space="preserve">
<g>
	<circle cx="9.457" cy="12.782" r="1.248"/>
	<path d="M21.601,15.361c-0.419-1.463-1.037-2.941-1.774-4.133c-0.925-1.496-2.037-2.542-3.178-2.542l-7.2-0.021
		c-4.833,0-7.604,13.001-3.988,13.001c2.09,0,2.94-2.737,4.613-3.861c0.768-0.516,1.709-0.892,3.024-0.892
		c1.021,0,1.912,0.341,2.724,0.818c1.877,1.105,3.318,3.888,4.892,3.888C22.482,21.62,22.507,18.523,21.601,15.361z M9.48,15.166
		c-1.338,0-2.423-1.085-2.423-2.422c0-1.335,1.084-2.419,2.423-2.419c1.337,0,2.421,1.084,2.421,2.419
		C11.901,14.081,10.817,15.166,9.48,15.166z M16.383,10.8c0.125-0.396,0.547-0.615,0.939-0.493c0.396,0.125,0.616,0.545,0.493,0.941
		c-0.126,0.396-0.546,0.615-0.941,0.492C16.48,11.618,16.26,11.197,16.383,10.8z M15.545,12.995
		c-0.396-0.123-0.616-0.543-0.491-0.94c0.124-0.394,0.545-0.614,0.94-0.49c0.395,0.123,0.616,0.543,0.491,0.939
		C16.361,12.901,15.939,13.118,15.545,12.995z M17.373,14.197c-0.126,0.396-0.545,0.615-0.941,0.492
		c-0.393-0.122-0.615-0.543-0.492-0.94c0.127-0.395,0.548-0.614,0.939-0.492C17.275,13.382,17.496,13.801,17.373,14.197z
		 M18.781,13.004c-0.126,0.396-0.546,0.615-0.941,0.493c-0.395-0.124-0.614-0.544-0.492-0.941c0.126-0.396,0.547-0.614,0.941-0.493
		C18.685,12.188,18.905,12.608,18.781,13.004z"/>
	<path d="M13.291,8.752c0.04,0,0.08-0.004,0.121-0.013c0.305-0.066,0.499-0.368,0.432-0.673c-0.267-1.23-0.232-2.425-0.037-2.587
		c0.004,0.001,0.352-0.041,1.321,0.888c0.403,0.388,1.634,1.568,2.661,1.028c1.233-0.645,0.924-3.252,0.8-4.036
		c-0.049-0.309-0.337-0.521-0.647-0.47c-0.309,0.049-0.52,0.339-0.471,0.647c0.203,1.281,0.102,2.696-0.207,2.857
		c-0.003-0.001-0.336,0.133-1.354-0.843c-0.719-0.689-1.777-1.549-2.648-1.063c-1.091,0.611-0.73,2.875-0.524,3.82
		C12.796,8.572,13.03,8.752,13.291,8.752z"/>
</g>
</svg>
